<?xml version="1.0" encoding="utf-8"?>
<!-- Generator: Adobe Illustrator 21.0.2, SVG Export Plug-In . SVG Version: 6.00 Build 0)  -->
<svg version="1.1" id="Warstwa_1" xmlns="http://www.w3.org/2000/svg" xmlns:xlink="http://www.w3.org/1999/xlink" x="0px" y="0px"
	 viewBox="0 0 66 32" style="enable-background:new 0 0 66 32;" xml:space="preserve">
<style type="text/css">
	.st0{fill:#008CE8;}
</style>
<path class="st0" d="M16.2,10.3c-2.1-1.7-4.1-2.5-6.1-2.5c-3,0-5.4,1-7.1,3.1c-1.7,2.1-2.6,5-2.6,8.7c0,3.5,0.9,6.4,2.8,8.6
	c1.9,2.2,4.4,3.2,7.5,3.2c1.3,0,2.3-0.2,3.1-0.6c0.8-0.4,1.7-1,2.5-2v1.8h8.4V0.8h-8.7V10.3L16.2,10.3z M16.5,19.6
	c0,3.9-1.2,5.8-3.7,5.8c-2.5,0-3.7-1.9-3.7-5.8c0-3.9,1.2-5.8,3.7-5.8C15.3,13.8,16.5,15.8,16.5,19.6L16.5,19.6z M42,9.1h-3.8V2.4
	h-8.7v6.7h-3.4v4.5h3.4v9.8c0,3,0.4,5,1.2,5.9c1.1,1.3,3,2,5.8,2c1.9,0,3.9-0.3,5.9-0.8l-0.2-5.6c-0.7,0.1-1.4,0.2-1.9,0.2
	c-0.8,0-1.4-0.2-1.7-0.7c-0.3-0.4-0.4-1.3-0.4-2.6v-8.1H42V9.1L42,9.1z M54.4,7.5c-3.1,0-5.5,0.7-7.4,2.1c-1.9,1.4-2.8,3.3-2.8,5.6
	c0,2.1,0.6,3.7,1.9,4.7c1.3,1,3.7,1.9,7.3,2.6l1.8,0.3c1.4,0.3,2.1,0.8,2.1,1.4c0,1-0.9,1.5-2.6,1.5c-2.3,0-4.4-0.9-6.5-2.6l-5.3,4
	c3.3,3.1,7.3,4.7,12,4.7c3.2,0,5.7-0.8,7.6-2.3c1.9-1.5,2.9-3.6,2.9-6.2c0-3.3-1.8-5.4-5.4-6.3l-5.2-1.3c-1.1-0.3-1.8-0.5-2.1-0.7
	c-0.3-0.2-0.5-0.4-0.5-0.8c0-0.9,0.7-1.3,2.2-1.3c1.5,0,3.2,0.6,5.1,1.9l0.5,0.3l5-4.1C62.1,8.7,58.6,7.5,54.4,7.5L54.4,7.5z"/>
</svg>
