<?xml version="1.0" encoding="utf-8"?>
<!-- Generator: Adobe Illustrator 22.1.0, SVG Export Plug-In . SVG Version: 6.00 Build 0)  -->
<svg version="1.1" id="Warstwa_1" xmlns="http://www.w3.org/2000/svg" xmlns:xlink="http://www.w3.org/1999/xlink" x="0px" y="0px"
	 viewBox="0 0 32 32" style="enable-background:new 0 0 32 32;" xml:space="preserve">
<style type="text/css">
	.st0{fill:#008CE8;}
</style>
<g>
	<g>
		<path class="st0" d="M7.6,23.2C6.5,23.2,6,24,6,25.7c0,1.6,0.5,2.5,1.6,2.5c1,0,1.6-0.8,1.6-2.5C9.1,24,8.6,23.2,7.6,23.2z"/>
		<path class="st0" d="M28.5,0h-25C1.6,0,0,1.6,0,3.5v25C0,30.4,1.6,32,3.5,32h25c1.9,0,3.5-1.6,3.5-3.5v-25C32,1.6,30.4,0,28.5,0z
			 M12.7,30.4H9.1v-0.8C8.7,30,8.4,30.3,8,30.5c-0.4,0.2-0.8,0.2-1.3,0.2c-1.3,0-2.4-0.5-3.2-1.4c-0.8-0.9-1.2-2.1-1.2-3.6
			c0-1.6,0.4-2.8,1.1-3.7c0.7-0.9,1.7-1.3,3-1.3c0.8,0,1.7,0.4,2.6,1.1v-4.1h3.7V30.4z M17.6,30.6c-1.2,0-2-0.3-2.4-0.8
			c-0.3-0.4-0.5-1.2-0.5-2.5v-4.2h-1.5v-1.9h1.5v-2.9h3.7v2.9H20v1.9h-1.6v3.4c0,0.6,0.1,0.9,0.2,1.1c0.1,0.2,0.4,0.3,0.7,0.3
			c0.2,0,0.5,0,0.8-0.1l0.1,2.4C19.3,30.5,18.4,30.6,17.6,30.6z M28.7,29.8c-0.8,0.7-1.9,1-3.2,1c-2,0-3.7-0.7-5.1-2l2.3-1.7
			c0.9,0.7,1.8,1.1,2.8,1.1c0.7,0,1.1-0.2,1.1-0.6c0-0.3-0.3-0.5-0.9-0.6l-0.7-0.1c-1.5-0.3-2.6-0.7-3.1-1.1c-0.5-0.4-0.8-1.1-0.8-2
			c0-1,0.4-1.8,1.2-2.4c0.8-0.6,1.8-0.9,3.2-0.9c1.8,0,3.3,0.5,4.5,1.5l-2.1,1.8l-0.2-0.1c-0.8-0.5-1.5-0.8-2.2-0.8
			c-0.6,0-0.9,0.2-0.9,0.6c0,0.1,0.1,0.3,0.2,0.3c0.1,0.1,0.4,0.2,0.9,0.3l2.2,0.5c1.5,0.4,2.3,1.3,2.3,2.7
			C30,28.3,29.5,29.2,28.7,29.8z M31.2,12.6c-4.5,0.1-10.4,0.7-16.6,2.2c-4.6,1.1-9.3,2.7-13.8,5.1v-0.7c4.4-2.3,9.1-3.9,13.7-5
			c6.2-1.5,12.2-2,16.8-2.2V12.6z"/>
	</g>
</g>
</svg>
